<?xml version="1.0" encoding="utf-8"?>
<!-- Generator: Adobe Illustrator 26.1.0, SVG Export Plug-In . SVG Version: 6.00 Build 0)  -->
<svg version="1.1" id="Layer_1" xmlns="http://www.w3.org/2000/svg" xmlns:xlink="http://www.w3.org/1999/xlink" x="0px" y="0px"
	 viewBox="0 0 1868 582" style="enable-background:new 0 0 1868 582;" xml:space="preserve">
<style type="text/css">
	.st0{fill:#FFFFFF;}
</style>
<g transform="translate(0.000000,582.000000) scale(0.100000,-0.100000)">
	<path class="st0" d="M10720,5805c-194-35-353-117-493-254c-89-86-147-167-201-282c-77-163-107-337-87-506c16-134,35-202,87-312
		c56-119,113-198,206-287c319-303,803-350,1158-113c243,163,383,418,397,727l6,122h-427h-426v-90v-90h321h321l-7-42
		c-42-272-229-489-490-566c-102-30-264-34-370-8c-153,37-309,137-400,258c-54,71-126,218-145,293c-76,314,32,648,267,823
		c141,106,278,152,453,152c211,0,408-75,558-214l43-39l64,63c36,36,65,70,65,76c0,27-156,147-255,196
		C11183,5804,10922,5841,10720,5805z"/>
	<path class="st0" d="M0,5700v-90h325h325v-840v-840h105h105v840v840h325h325v90v90H755H0V5700z"/>
	<path class="st0" d="M1830,4861v-931h105h105v395v395h283l282-1l189-394l189-395h114c62,0,113,2,113,4c0,3-85,179-189,391
		c-105,212-193,395-196,406c-4,13-1,21,12,25c166,58,296,185,345,337c29,87,28,237-1,328c-52,164-173,280-356,340
		c-68,23-80,24-532,27l-463,3V4861z M2690,5600c214-41,343-220,301-422c-25-121-117-220-240-258c-57-18-92-20-387-20h-324v355v355
		h299C2503,5610,2661,5606,2690,5600z"/>
	<path class="st0" d="M3767,4878c-201-502-369-921-373-930c-6-17,3-18,103-18h109l110,288l110,287h424h424l110-287l110-288h113h113
		l-18,44c-9,24-174,442-367,929l-350,887h-126h-125L3767,4878z M4432,5135l176-455h-355c-280,0-354,3-351,13c36,104,344,897,348,897
		S4335,5385,4432,5135z"/>
	<path class="st0" d="M5380,4860v-931l403,3c376,4,407,6,481,26c180,50,307,122,426,242c89,88,141,164,185,269c61,144,70,197,69,396
		c0,166-2,187-27,268c-100,325-320,536-656,630c-70,19-106,21-478,25l-403,3V4860z M6118,5600c161-21,286-84,407-205
		c92-92,135-159,179-282c30-85,31-94,31-253s-1-168-31-253c-45-124-87-190-184-287c-68-69-102-94-170-127c-143-70-171-75-482-80
		l-278-5v751v751h228C5943,5610,6078,5605,6118,5600z"/>
	<path class="st0" d="M7340,4860v-930h105h105v930v930h-105h-105V4860z"/>
	<path class="st0" d="M8030,4860v-930h98h98l-4,788l-4,787l59-80c32-44,287-398,567-787l508-708h94h94v930v930h-97h-98l3-677
		c2-373,2-718,0-767l-3-90l-550,767l-549,767h-108h-108V4860z"/>
	<path class="st0" d="M16548,5670c-9-6-39-52-67-104c-153-288-426-634-677-862c-142-128-224-193-449-354c-511-366-957-724-1420-1139
		c-201-180-773-753-919-921c-117-135-133-161-122-203c4-18,1650-1739,1821-1905c34-33,51-42,78-42c43,0,55,11,155,140
		c302,393,801,892,1288,1291c360,295,669,520,1081,787c229,148,314,210,474,344c322,270,588,627,688,925c32,96,30,106-47,187
		c-236,247-1713,1780-1752,1819C16630,5682,16589,5693,16548,5670z M17504,4538c449-466,816-854,816-861c0-8-31-77-70-153
		c-106-211-224-366-427-565c-166-162-288-256-608-467c-562-371-921-641-1355-1021c-308-269-820-799-1025-1060l-50-63l-75,78
		c-41,44-421,438-845,878c-423,439-772,802-773,807c-2,6,31,49,75,96c633,701,1407,1379,2318,2031c208,148,278,204,423,335
		c246,223,530,572,679,837l28,50l36-38C16671,5402,17055,5004,17504,4538z"/>
	<path class="st0" d="M16595,4939c-11-6-46-46-79-90c-152-207-374-434-596-611c-69-54-142-113-162-129c-32-25-38-36-38-69
		c0-30,6-43,26-59c46-36,78-28,178,47c265,196,545,476,737,735c67,90,72,115,30,158C16661,4951,16631,4956,16595,4939z"/>
	<path class="st0" d="M15560,3710c-101-16-242-83-317-153l-23-20l-38,41c-22,23-45,42-53,42c-15,0-119-99-119-113c0-4,18-27,41-52
		l41-44l-25-33c-106-141-137-344-75-480c70-153,236-238,405-208c66,11,186,54,252,89l33,18l147-150c80-82,146-154,146-160
		c0-7-31-28-69-47c-58-29-82-36-147-39c-43-1-82-8-87-15c-5-6-17-60-26-120c-20-132-18-136,68-136c119,0,262,57,375,148l53,44l42-41
		c23-23,51-41,63-41s40,21,67,50c52,55,52,62-3,114c-17,17-31,35-31,42c0,6,20,41,44,77c73,108,90,164,91,292c0,99-3,116-27,168
		c-33,70-115,155-182,187c-65,31-170,38-256,16c-36-9-112-39-170-67l-105-51l-147,152c-81,84-145,157-142,162c4,6,34,23,68,39
		c45,21,76,29,118,29c35,0,62,5,71,14c17,17,44,223,31,236C15659,3715,15617,3718,15560,3710z M15500,2979c0-15-111-41-151-36
		c-84,11-147,97-136,187c3,27,14,64,23,82l17,33l123-129C15444,3045,15500,2984,15500,2979z M16099,2911c45-32,65-76,65-141
		c-1-54-33-150-52-150c-12,0-266,270-260,276c3,2,29,13,59,24C15980,2946,16055,2942,16099,2911z"/>
	<path class="st0" d="M15535,1689c-220-181-570-536-756-767c-47-58-59-80-59-108c0-68,79-109,128-67c11,10,65,72,120,138
		c129,156,366,400,528,545c197,176,204,184,204,217c0,47-34,83-78,83C15593,1730,15573,1721,15535,1689z"/>
	<path class="st0" d="M0,3000v-340h515h515V1330V0h375h375v1330v1330h515h515v340v340H1405H0V3000z"/>
	<path class="st0" d="M3410,1670V0h375h375v1670v1670h-375h-375V1670z"/>
	<path class="st0" d="M5010,1670V0h365h365l2,1078l3,1077l469-702c258-387,473-703,477-703c5,0,221,318,481,708l473,707l3-1082
		l2-1083h375h375v1670v1670l-406-2l-406-3l-441-701c-243-386-445-699-449-695c-4,3-204,319-445,701l-439,695l-402,3l-402,2V1670z"/>
	<path class="st0" d="M9210,1670V0h1290h1290v325v325h-920h-920v350v350l798,2l797,3l3,328l2,327h-800h-800v340v340h910h910v325v325
		h-1280H9210V1670z"/>
</g>
</svg>
